# Wavefront OBJ file automatically generated by Tiled2Unity

# Vertices (Count = 124)
v -848 -304 0
v -864 -304 0
v -864 -288 0
v -848 -288 0
v -832 -304 0
v -832 -288 0
v -816 -304 0
v -816 -288 0
v -800 -304 0
v -800 -288 0
v -784 -304 0
v -784 -288 0
v -768 -304 0
v -768 -288 0
v -752 -304 0
v -752 -288 0
v -736 -304 0
v -736 -288 0
v -720 -304 0
v -720 -288 0
v -704 -304 0
v -704 -288 0
v -640 -304 0
v -656 -304 0
v -656 -288 0
v -640 -288 0
v -624 -304 0
v -624 -288 0
v -560 -304 0
v -576 -304 0
v -576 -288 0
v -560 -288 0
v -544 -304 0
v -544 -288 0
v -480 -304 0
v -496 -304 0
v -496 -288 0
v -480 -288 0
v -464 -304 0
v -464 -288 0
v -448 -304 0
v -448 -288 0
v -432 -304 0
v -432 -288 0
v -416 -304 0
v -416 -288 0
v -400 -304 0
v -400 -288 0
v -384 -304 0
v -384 -288 0
v -336 -304 0
v -352 -304 0
v -352 -288 0
v -336 -288 0
v -320 -304 0
v -320 -288 0
v -304 -304 0
v -304 -288 0
v -288 -304 0
v -288 -288 0
v -272 -304 0
v -272 -288 0
v -256 -304 0
v -256 -288 0
v -240 -304 0
v -240 -288 0
v -224 -304 0
v -224 -288 0
v -208 -304 0
v -208 -288 0
v -192 -304 0
v -192 -288 0
v -176 -304 0
v -176 -288 0
v -160 -304 0
v -160 -288 0
v -144 -304 0
v -144 -288 0
v -128 -304 0
v -128 -288 0
v -112 -304 0
v -112 -288 0
v -96 -304 0
v -96 -288 0
v -80 -304 0
v -80 -288 0
v -64 -304 0
v -64 -288 0
v -48 -304 0
v -48 -288 0
v -880 -288 0
v -880 -272 0
v -864 -272 0
v -400 -272 0
v -384 -272 0
v -352 -272 0
v -336 -272 0
v -896 -272 0
v -896 -256 0
v -880 -256 0
v -400 -256 0
v -384 -256 0
v -368 -272 0
v -368 -256 0
v -352 -256 0
v -336 -256 0
v -976 -256 0
v -992 -256 0
v -992 -240 0
v -976 -240 0
v -960 -256 0
v -960 -240 0
v -944 -256 0
v -944 -240 0
v -928 -256 0
v -928 -240 0
v -912 -256 0
v -912 -240 0
v -896 -240 0
v -224 -272 0
v -208 -272 0
v -192 -272 0
v -400 -240 0
v -384 -240 0

# Texture Coorindates (Count = 8)
vt 0.0001220703 0.6251221
vt 0.1248779 0.6251221
vt 0.1248779 0.7498779
vt 0.0001220703 0.7498779
vt 0.1251221 0.6251221
vt 0.2498779 0.6251221
vt 0.2498779 0.7498779
vt 0.1251221 0.7498779

# Normal
vn 0 0 -1

# Groups (Count = 2)
g mesh_[00]_[00]
f  1/1/1  2/2/1  3/3/1  4/4/1 
f  5/1/1  1/2/1  4/3/1  6/4/1 
f  7/1/1  5/2/1  6/3/1  8/4/1 
f  9/1/1  7/2/1  8/3/1  10/4/1 
f  11/1/1  9/2/1  10/3/1  12/4/1 
f  13/1/1  11/2/1  12/3/1  14/4/1 
f  15/1/1  13/2/1  14/3/1  16/4/1 
f  17/1/1  15/2/1  16/3/1  18/4/1 
f  19/1/1  17/2/1  18/3/1  20/4/1 
f  21/1/1  19/2/1  20/3/1  22/4/1 
f  23/1/1  24/2/1  25/3/1  26/4/1 
f  27/1/1  23/2/1  26/3/1  28/4/1 
f  29/1/1  30/2/1  31/3/1  32/4/1 
f  33/1/1  29/2/1  32/3/1  34/4/1 
f  35/1/1  36/2/1  37/3/1  38/4/1 
f  39/1/1  35/2/1  38/3/1  40/4/1 
f  41/1/1  39/2/1  40/3/1  42/4/1 
f  43/1/1  41/2/1  42/3/1  44/4/1 
f  45/1/1  43/2/1  44/3/1  46/4/1 
f  47/1/1  45/2/1  46/3/1  48/4/1 
f  49/1/1  47/2/1  48/3/1  50/4/1 
f  51/1/1  52/2/1  53/3/1  54/4/1 
f  55/1/1  51/2/1  54/3/1  56/4/1 
f  57/1/1  55/2/1  56/3/1  58/4/1 
f  59/1/1  57/2/1  58/3/1  60/4/1 
f  61/1/1  59/2/1  60/3/1  62/4/1 
f  63/1/1  61/2/1  62/3/1  64/4/1 
f  65/1/1  63/2/1  64/3/1  66/4/1 
f  67/1/1  65/2/1  66/3/1  68/4/1 
f  69/1/1  67/2/1  68/3/1  70/4/1 
f  71/1/1  69/2/1  70/3/1  72/4/1 
f  73/1/1  71/2/1  72/3/1  74/4/1 
f  75/1/1  73/2/1  74/3/1  76/4/1 
f  77/1/1  75/2/1  76/3/1  78/4/1 
f  79/1/1  77/2/1  78/3/1  80/4/1 
f  81/1/1  79/2/1  80/3/1  82/4/1 
f  83/1/1  81/2/1  82/3/1  84/4/1 
f  85/1/1  83/2/1  84/3/1  86/4/1 
f  87/1/1  85/2/1  86/3/1  88/4/1 
f  89/1/1  87/2/1  88/3/1  90/4/1 
f  3/1/1  91/2/1  92/3/1  93/4/1 
f  50/1/1  48/2/1  94/3/1  95/4/1 
f  54/1/1  53/2/1  96/3/1  97/4/1 
f  92/1/1  98/2/1  99/3/1  100/4/1 
f  95/1/1  94/2/1  101/3/1  102/4/1 
f  103/1/1  95/2/1  102/3/1  104/4/1 
f  96/1/1  103/2/1  104/3/1  105/4/1 
f  97/1/1  96/2/1  105/3/1  106/4/1 
f  107/1/1  108/2/1  109/3/1  110/4/1 
f  111/1/1  107/2/1  110/3/1  112/4/1 
f  113/1/1  111/2/1  112/3/1  114/4/1 
f  115/1/1  113/2/1  114/3/1  116/4/1 
f  117/1/1  115/2/1  116/3/1  118/4/1 
f  99/1/1  117/2/1  118/3/1  119/4/1 
g mesh_[01]_[00]
f  70/5/1  68/6/1  120/7/1  121/8/1 
f  72/5/1  70/6/1  121/7/1  122/8/1 
f  102/5/1  101/6/1  123/7/1  124/8/1 
